<svg width="40" height="40" viewBox="0 0 40 40" fill="none" xmlns="http://www.w3.org/2000/svg">
<path d="M38.9375 9.06249C37.9375 7.32811 35.2969 5.71874 28.3906 7.57811C26.1362 6.05033 23.5081 5.16581 20.7887 5.01962C18.0693 4.87344 15.3615 5.47112 12.9563 6.74843C10.5511 8.02573 8.53949 9.93436 7.13766 12.2692C5.73583 14.604 4.9968 17.2767 4.99999 20C4.99999 20.3594 5.01562 20.7187 5.03124 21.0625C-0.0156299 26.1094 0.0624949 29.2031 1.06249 30.9375C2.06249 32.6719 4.07812 33.2344 6.26562 33.2344C7.6491 33.2114 9.02638 33.0438 10.375 32.7344L11.5937 32.4219C13.8495 33.9482 16.4783 34.8316 19.198 34.9773C21.9178 35.1229 24.6259 34.5252 27.0317 33.2484C29.4376 31.9716 31.4504 30.0639 32.8542 27.7298C34.2579 25.3958 34.9998 22.7236 35 20C35 19.6406 34.9844 19.2812 34.9687 18.9375L35.8437 18.0312C38.1562 15.5 40.5781 11.9062 38.9375 9.06249V9.06249ZM20 8.74999C22.5568 8.7545 25.0363 9.62743 27.032 11.2257C29.0277 12.824 30.4213 15.0528 30.9844 17.5469C28.5937 19.6875 25.5625 21.8437 22.1875 23.7812C18.8125 25.7187 15.4375 27.2812 12.3906 28.2812C10.7235 26.7483 9.55787 24.7479 9.04619 22.5417C8.53451 20.3355 8.70061 18.0262 9.52277 15.916C10.3449 13.8057 11.7849 11.9927 13.6542 10.7142C15.5235 9.43564 17.7352 8.75105 20 8.74999V8.74999ZM4.29687 29.0625C4.14062 28.7812 4.40624 27.5625 6.04687 25.5156C6.59209 26.8819 7.33433 28.1611 8.24999 29.3125C5.43749 29.7656 4.40624 29.25 4.29687 29.0625V29.0625ZM20 31.25C18.8439 31.2502 17.6948 31.071 16.5937 30.7187C19.1643 29.661 21.6597 28.4289 24.0625 27.0312C26.4731 25.6502 28.7859 24.1048 30.9844 22.4062C30.4332 24.9103 29.0443 27.1514 27.0471 28.7594C25.0499 30.3673 22.564 31.2459 20 31.25V31.25ZM33.9531 14.4844C33.4079 13.118 32.6657 11.8389 31.75 10.6875C34.3437 10.2656 35.5312 10.6562 35.7031 10.9375C35.875 11.2187 35.75 12.2656 33.9531 14.4844V14.4844Z" fill="black"/>
</svg>
